<svg width="24" height="24" viewBox="0 0 24 24" fill="none" xmlns="http://www.w3.org/2000/svg">
<path d="M14.2575 7.33698L9.09302 7.35474L9.24951 16.8096L14.414 16.7919L14.2575 7.33698Z" fill="#FF5F00"/>
<path d="M9.43273 12.1013C9.40077 10.1783 10.2622 8.46956 11.6116 7.36121C10.5931 6.56199 9.31621 6.08139 7.93206 6.08613C4.65295 6.09736 2.04474 8.79872 2.10004 12.1264C2.15534 15.4542 4.85303 18.1373 8.13215 18.1261C9.51629 18.1214 10.777 17.6321 11.7689 16.826C10.3831 15.7437 9.46469 14.0244 9.43273 12.1013Z" fill="#EB001B"/>
<path d="M21.4068 12.0201C21.4621 15.3478 18.8539 18.0492 15.5747 18.0604C14.1906 18.0652 12.9137 17.5846 11.8952 16.7853C13.261 15.6769 14.106 13.9683 14.0741 12.0452C14.0421 10.1222 13.124 8.41955 11.738 7.32057C12.7298 6.51446 13.9905 6.02517 15.3747 6.02043C18.6538 6.0092 21.3517 8.70911 21.4068 12.0201Z" fill="#F79E1B"/>
</svg>
