<svg width="18" height="19" viewBox="0 0 18 19" fill="none" xmlns="http://www.w3.org/2000/svg">
<path d="M8.04894 3.09771C8.3483 2.1764 9.6517 2.1764 9.95106 3.09771L10.7961 5.69852C10.93 6.11054 11.3139 6.3895 11.7472 6.3895H14.4818C15.4505 6.3895 15.8533 7.62912 15.0696 8.19852L12.8572 9.80591C12.5067 10.0606 12.3601 10.5119 12.494 10.9239L13.339 13.5248C13.6384 14.4461 12.5839 15.2122 11.8002 14.6428L9.58779 13.0354C9.2373 12.7808 8.7627 12.7808 8.41222 13.0354L6.19983 14.6428C5.41612 15.2122 4.36164 14.4461 4.66099 13.5248L5.50604 10.9239C5.63992 10.5119 5.49326 10.0606 5.14277 9.80591L2.93039 8.19852C2.14668 7.62912 2.54945 6.3895 3.51818 6.3895H6.25283C6.68606 6.3895 7.07001 6.11054 7.20389 5.69852L8.04894 3.09771Z" fill="#F2CC02"/>
</svg>
