<svg width="25" height="24" viewBox="0 0 25 24" fill="none" xmlns="http://www.w3.org/2000/svg">
<path d="M7.20001 18H4.65002C3.22002 18 2.5 17.28 2.5 15.85V4.15002C2.5 2.72002 3.22002 2 4.65002 2H8.95001C10.38 2 11.1 2.72002 11.1 4.15002V6" stroke="#101010" stroke-width="1.5" stroke-miterlimit="10" stroke-linecap="round" stroke-linejoin="round"/>
<path d="M17.87 8.41998V19.58C17.87 21.19 17.07 22 15.46 22H9.62C8.01 22 7.20001 21.19 7.20001 19.58V8.41998C7.20001 6.80998 8.01 6 9.62 6H15.46C17.07 6 17.87 6.80998 17.87 8.41998Z" stroke="#101010" stroke-width="1.5" stroke-miterlimit="10" stroke-linecap="round" stroke-linejoin="round"/>
<path d="M13.9 6V4.15002C13.9 2.72002 14.62 2 16.05 2H20.35C21.78 2 22.5 2.72002 22.5 4.15002V15.85C22.5 17.28 21.78 18 20.35 18H17.87" stroke="#101010" stroke-width="1.5" stroke-miterlimit="10" stroke-linecap="round" stroke-linejoin="round"/>
<path d="M10.5 11H14.5" stroke="#101010" stroke-width="1.5" stroke-miterlimit="10" stroke-linecap="round" stroke-linejoin="round"/>
<path d="M10.5 14H14.5" stroke="#101010" stroke-width="1.5" stroke-miterlimit="10" stroke-linecap="round" stroke-linejoin="round"/>
<path d="M12.5 22V19" stroke="#101010" stroke-width="1.5" stroke-miterlimit="10" stroke-linecap="round" stroke-linejoin="round"/>
</svg>
