<svg width="25" height="24" viewBox="0 0 25 24" fill="none" xmlns="http://www.w3.org/2000/svg">
<path d="M1.5 22H23.5" stroke="#101010" stroke-width="1.5" stroke-miterlimit="10" stroke-linecap="round" stroke-linejoin="round"/>
<path d="M20.28 22.0101V17.55" stroke="#101010" stroke-width="1.5" stroke-miterlimit="10" stroke-linecap="round" stroke-linejoin="round"/>
<path d="M20.3 10.8901C19.08 10.8901 18.1 11.8701 18.1 13.0901V15.3601C18.1 16.5801 19.08 17.5601 20.3 17.5601C21.52 17.5601 22.5 16.5801 22.5 15.3601V13.0901C22.5 11.8701 21.52 10.8901 20.3 10.8901Z" stroke="#101010" stroke-width="1.5" stroke-miterlimit="10" stroke-linecap="round" stroke-linejoin="round"/>
<path d="M2.59998 22V6.03003C2.59998 4.02003 3.60003 3.01001 5.59003 3.01001H11.82C13.81 3.01001 14.8 4.02003 14.8 6.03003V22" stroke="#101010" stroke-width="1.5" stroke-miterlimit="10" stroke-linecap="round" stroke-linejoin="round"/>
<path d="M6.29999 8.25H11.25" stroke="#101010" stroke-width="1.5" stroke-miterlimit="10" stroke-linecap="round" stroke-linejoin="round"/>
<path d="M6.29999 12H11.25" stroke="#101010" stroke-width="1.5" stroke-miterlimit="10" stroke-linecap="round" stroke-linejoin="round"/>
<path d="M8.75 22V18.25" stroke="#101010" stroke-width="1.5" stroke-miterlimit="10" stroke-linecap="round" stroke-linejoin="round"/>
</svg>
