<svg width="16" height="17" viewBox="0 0 16 17" fill="none" xmlns="http://www.w3.org/2000/svg">
<path d="M9.61998 13.2174C9.49331 13.2174 9.36665 13.1707 9.26665 13.0707C9.07331 12.8774 9.07331 12.5574 9.26665 12.3641L12.96 8.67073L9.26665 4.9774C9.07331 4.78407 9.07331 4.46407 9.26665 4.27073C9.45998 4.0774 9.77998 4.0774 9.97331 4.27073L14.02 8.3174C14.2133 8.51073 14.2133 8.83073 14.02 9.02407L9.97331 13.0707C9.87331 13.1707 9.74665 13.2174 9.61998 13.2174Z" fill="#245638"/>
<path d="M13.5533 9.17073H2.33331C2.05998 9.17073 1.83331 8.94407 1.83331 8.67073C1.83331 8.3974 2.05998 8.17073 2.33331 8.17073H13.5533C13.8266 8.17073 14.0533 8.3974 14.0533 8.67073C14.0533 8.94407 13.8266 9.17073 13.5533 9.17073Z" fill="#245638"/>
</svg>
